<mxfile host="app.diagrams.net" modified="2023-03-05T16:21:30.277Z" agent="5.0 (Macintosh; Intel Mac OS X 10_15_7) AppleWebKit/537.36 (KHTML, like Gecko) Chrome/109.0.0.0 Safari/537.36" etag="YBnHahvKesE_0dywk9be" version="21.0.2" type="github">
  <diagram name="OS Kernel" id="s03dmnNNNq0gWXks5r74">
    <mxGraphModel dx="1194" dy="766" grid="0" gridSize="10" guides="1" tooltips="1" connect="1" arrows="1" fold="1" page="1" pageScale="1" pageWidth="827" pageHeight="1169" math="0" shadow="0">
      <root>
        <mxCell id="0" />
        <mxCell id="1" parent="0" />
        <mxCell id="Ox9AX8Ggppyfp4ItEbXE-4" value="" style="rounded=0;whiteSpace=wrap;html=1;fillColor=#dae8fc;strokeColor=#6c8ebf;" parent="1" vertex="1">
          <mxGeometry x="65" y="110" width="490" height="90" as="geometry" />
        </mxCell>
        <mxCell id="Ox9AX8Ggppyfp4ItEbXE-1" value="CPU" style="rounded=0;whiteSpace=wrap;html=1;fontStyle=1" parent="1" vertex="1">
          <mxGeometry x="65" y="500" width="120" height="50" as="geometry" />
        </mxCell>
        <mxCell id="Ox9AX8Ggppyfp4ItEbXE-2" value="Spotify" style="rounded=0;whiteSpace=wrap;html=1;" parent="1" vertex="1">
          <mxGeometry x="250" y="130" width="120" height="50" as="geometry" />
        </mxCell>
        <mxCell id="Ox9AX8Ggppyfp4ItEbXE-3" value="Excel" style="rounded=0;whiteSpace=wrap;html=1;" parent="1" vertex="1">
          <mxGeometry x="390" y="130" width="120" height="50" as="geometry" />
        </mxCell>
        <mxCell id="Ox9AX8Ggppyfp4ItEbXE-5" value="System Call" style="rounded=0;whiteSpace=wrap;html=1;fillColor=#d5e8d4;strokeColor=#82b366;" parent="1" vertex="1">
          <mxGeometry x="120" y="260" width="120" height="30" as="geometry" />
        </mxCell>
        <mxCell id="Ox9AX8Ggppyfp4ItEbXE-6" value="System Call" style="rounded=0;whiteSpace=wrap;html=1;fillColor=#d5e8d4;strokeColor=#82b366;" parent="1" vertex="1">
          <mxGeometry x="250" y="260" width="120" height="30" as="geometry" />
        </mxCell>
        <mxCell id="Ox9AX8Ggppyfp4ItEbXE-7" value="System Call" style="rounded=0;whiteSpace=wrap;html=1;fillColor=#d5e8d4;strokeColor=#82b366;" parent="1" vertex="1">
          <mxGeometry x="380" y="260" width="120" height="30" as="geometry" />
        </mxCell>
        <mxCell id="Ox9AX8Ggppyfp4ItEbXE-9" value="" style="shape=flexArrow;endArrow=classic;html=1;rounded=0;" parent="1" edge="1">
          <mxGeometry width="50" height="50" relative="1" as="geometry">
            <mxPoint x="179.5" y="204" as="sourcePoint" />
            <mxPoint x="179.5" y="254" as="targetPoint" />
          </mxGeometry>
        </mxCell>
        <mxCell id="Ox9AX8Ggppyfp4ItEbXE-10" value="" style="shape=flexArrow;endArrow=classic;html=1;rounded=0;" parent="1" edge="1">
          <mxGeometry width="50" height="50" relative="1" as="geometry">
            <mxPoint x="309.5" y="204" as="sourcePoint" />
            <mxPoint x="309.5" y="254" as="targetPoint" />
          </mxGeometry>
        </mxCell>
        <mxCell id="Ox9AX8Ggppyfp4ItEbXE-11" value="" style="shape=flexArrow;endArrow=classic;html=1;rounded=0;" parent="1" edge="1">
          <mxGeometry width="50" height="50" relative="1" as="geometry">
            <mxPoint x="439.5" y="204" as="sourcePoint" />
            <mxPoint x="439.5" y="254" as="targetPoint" />
          </mxGeometry>
        </mxCell>
        <mxCell id="Ox9AX8Ggppyfp4ItEbXE-13" value="&lt;font style=&quot;font-size: 23px;&quot;&gt;&lt;b&gt;Kernel&lt;/b&gt;&lt;/font&gt;" style="rounded=0;whiteSpace=wrap;html=1;fillColor=#dae8fc;strokeColor=#6c8ebf;" parent="1" vertex="1">
          <mxGeometry x="65" y="350" width="490" height="90" as="geometry" />
        </mxCell>
        <mxCell id="Ox9AX8Ggppyfp4ItEbXE-15" value="" style="shape=flexArrow;endArrow=classic;html=1;rounded=0;" parent="1" edge="1">
          <mxGeometry width="50" height="50" relative="1" as="geometry">
            <mxPoint x="120" y="444" as="sourcePoint" />
            <mxPoint x="120" y="494" as="targetPoint" />
          </mxGeometry>
        </mxCell>
        <mxCell id="Ox9AX8Ggppyfp4ItEbXE-16" value="" style="shape=flexArrow;endArrow=classic;html=1;rounded=0;" parent="1" edge="1">
          <mxGeometry width="50" height="50" relative="1" as="geometry">
            <mxPoint x="309.5" y="294" as="sourcePoint" />
            <mxPoint x="309.5" y="344" as="targetPoint" />
          </mxGeometry>
        </mxCell>
        <mxCell id="Ox9AX8Ggppyfp4ItEbXE-17" value="" style="shape=flexArrow;endArrow=classic;html=1;rounded=0;" parent="1" edge="1">
          <mxGeometry width="50" height="50" relative="1" as="geometry">
            <mxPoint x="439.5" y="294" as="sourcePoint" />
            <mxPoint x="439.5" y="344" as="targetPoint" />
          </mxGeometry>
        </mxCell>
        <mxCell id="Ox9AX8Ggppyfp4ItEbXE-18" value="Memory" style="rounded=0;whiteSpace=wrap;html=1;fontStyle=1" parent="1" vertex="1">
          <mxGeometry x="250" y="500" width="120" height="50" as="geometry" />
        </mxCell>
        <mxCell id="Ox9AX8Ggppyfp4ItEbXE-19" value="Hard Disk" style="rounded=0;whiteSpace=wrap;html=1;fontStyle=1" parent="1" vertex="1">
          <mxGeometry x="435" y="500" width="120" height="50" as="geometry" />
        </mxCell>
        <mxCell id="Ox9AX8Ggppyfp4ItEbXE-21" value="" style="shape=flexArrow;endArrow=classic;html=1;rounded=0;" parent="1" edge="1">
          <mxGeometry width="50" height="50" relative="1" as="geometry">
            <mxPoint x="309.5" y="444" as="sourcePoint" />
            <mxPoint x="309.5" y="494" as="targetPoint" />
          </mxGeometry>
        </mxCell>
        <mxCell id="Ox9AX8Ggppyfp4ItEbXE-22" value="" style="shape=flexArrow;endArrow=classic;html=1;rounded=0;" parent="1" edge="1">
          <mxGeometry width="50" height="50" relative="1" as="geometry">
            <mxPoint x="494.5" y="444" as="sourcePoint" />
            <mxPoint x="494.5" y="494" as="targetPoint" />
          </mxGeometry>
        </mxCell>
        <mxCell id="Ox9AX8Ggppyfp4ItEbXE-23" value="Chrome" style="rounded=0;whiteSpace=wrap;html=1;" parent="1" vertex="1">
          <mxGeometry x="110" y="130" width="120" height="50" as="geometry" />
        </mxCell>
      </root>
    </mxGraphModel>
  </diagram>
</mxfile>
